<svg width="30" height="30" viewBox="0 0 30 30" fill="none" xmlns="http://www.w3.org/2000/svg">
<g clip-path="url(#clip0)">
<path d="M1.3668 23.6754H4.66712C5.20373 21.8896 6.84462 20.5771 8.8027 20.5771C10.7608 20.5771 12.4005 21.8896 12.9383 23.6754H28.6318C29.3159 23.6754 29.8711 24.2307 29.8711 24.9148C29.8711 25.5989 29.3159 26.1541 28.6318 26.1541H12.9383C12.4017 27.9399 10.7608 29.2523 8.80276 29.2523C6.84468 29.2523 5.205 27.9399 4.66718 26.1541H1.36686C0.68154 26.1541 0.127565 25.5989 0.127565 24.9148C0.127565 24.2307 0.68148 23.6754 1.3668 23.6754ZM8.8027 26.7737C9.82763 26.7737 10.6617 25.9397 10.6617 24.9148C10.6617 23.8898 9.82763 23.0558 8.8027 23.0558C7.77777 23.0558 6.94373 23.8898 6.94373 24.9148C6.94373 25.9397 7.77782 26.7737 8.8027 26.7737Z" fill="white"/>
<path d="M1.3668 3.84632H4.66712C5.205 2.06048 6.84462 0.748047 8.8027 0.748047C10.7608 0.748047 12.4005 2.06048 12.9383 3.84632H28.6318C29.3159 3.84632 29.8711 4.40151 29.8711 5.08562C29.8711 5.76972 29.3159 6.32491 28.6318 6.32491H12.9383C12.4005 8.11081 10.7608 9.42324 8.8027 9.42324C6.84456 9.42324 5.20494 8.11081 4.66712 6.32497H1.3668C0.681479 6.32497 0.127504 5.76978 0.127504 5.08567C0.127504 4.40157 0.681479 3.84632 1.3668 3.84632ZM8.8027 6.94459C9.82763 6.94459 10.6617 6.11055 10.6617 5.08562C10.6617 4.06068 9.82763 3.22664 8.8027 3.22664C7.77777 3.22664 6.94373 4.06068 6.94373 5.08562C6.94373 6.11055 7.77782 6.94459 8.8027 6.94459Z" fill="white"/>
<path d="M1.3668 13.7609H17.0603C17.5981 11.975 19.2378 10.6626 21.1958 10.6626C23.1539 10.6626 24.7936 11.975 25.3314 13.7609H28.6318C29.3159 13.7609 29.8711 14.3161 29.8711 15.0002C29.8711 15.6843 29.3159 16.2395 28.6318 16.2395H25.3315C24.7936 18.0253 23.154 19.3377 21.1959 19.3377C19.2378 19.3377 17.5981 18.0253 17.0603 16.2395H1.36686C0.68154 16.2395 0.127565 15.6843 0.127565 15.0002C0.127506 14.3161 0.68148 13.7609 1.3668 13.7609ZM21.1959 16.8591C22.2208 16.8591 23.0549 16.0251 23.0549 15.0002C23.0549 13.9752 22.2208 13.1412 21.1959 13.1412C20.171 13.1412 19.3369 13.9752 19.3369 15.0002C19.3369 16.0251 20.171 16.8591 21.1959 16.8591Z" fill="white"/>
</g>
<defs>
<clipPath id="clip0">
<rect width="29.7436" height="29.7436" fill="white" transform="matrix(-1 0 0 1 29.8711 0.128418)"/>
</clipPath>
</defs>
</svg>
